<svg id="Layer_1" data-name="Layer 1" xmlns="http://www.w3.org/2000/svg" viewBox="0 0 789.82 469.87"><defs><style>.cls-1{fill:#181c27;}</style></defs><path class="cls-1" d="M734,349.6a148.35,148.35,0,0,0-22.12-5.13c-20.77-2.82-38.92-9.8-54.31-21.48l.2-.06c-1.71-2.56-3-5.54-5.22-7.62-6.34-6.06-12.86-11.95-19.28-17.94a16.2,16.2,0,0,0-4-3.78c-2.17-2.06-4.32-4.13-6.44-6.24-1.88-1.88-1.63-5.9-2.35-8.93a70,70,0,0,1,9.14,1.95c1.76.61,3.12,2.34,4.73,3.46,12.44,8.65,24.68,17.61,37.48,25.69,4,2.53,9.47,3.4,14.35,3.7,5.76.35,11.58-2.39,11-8.76-.33-3.46-4.93-8.34-8.52-9.35-17.22-4.85-31.53-14.36-45.3-25.23-7.23-5.71-14.6-11.64-22.81-15.61-9.65-4.65-19.17,3-17.93,13.7.57,4.94,2.4,9.74,3.38,13.5,4.94,8.36,8.73,16,13.64,22.79,3.45,4.8,7,9.59,11.31,13.39,14.41,19.39,33.63,32.09,60,34.43,3.12.27,6.09,2.23,9.13,3.41l-.39,3.82c-5,.53-9.94,1.68-14.87,1.49-21-.84-40.13-8.08-58.5-17.65-7.72-4-15-8.92-23-12.44-2.56-1.14-8.91.12-9.36,1.56-1,3.44-.21,7.85,1.06,11.44.7,2,3.65,3.55,5.92,4.46,19.28,7.72,38.26,16.49,58.07,22.51,26.22,8,51.85,3.85,75.7-9.8,2.17-1.25,4.89-4,4.8-6S736.24,350.28,734,349.6Z" transform="translate(-34.19 -37.6)"/><path class="cls-1" d="M573.16,251.51c-1.54-1.26-8,.83-10,3.25-6.24,7.45-11.43,15.79-17,23.78-10.73,26.4-12,54.43-16.48,81.76-.29,1.77,1.35,5.38,2.44,5.53,2.47.33,5.76-.22,7.64-1.74,9.24-7.47,14.66-17.22,17.63-28.87,4.28-16.8,9.62-33.34,14.53-50,2.22-7.52,5.34-14.91,6.37-22.59C578.76,259.06,576.09,253.9,573.16,251.51Z" transform="translate(-34.19 -37.6)"/><path class="cls-1" d="M625.21,207.55l-1.89-2.72c-17,.62-31.49,7.78-44.74,18-2.3,1.76-3.35,5.15-5,7.79,3.48,1.17,7.75,4.24,10.29,3.17A206.8,206.8,0,0,0,612,219.28C616.92,216.26,620.83,211.51,625.21,207.55Z" transform="translate(-34.19 -37.6)"/><path class="cls-1" d="M578.28,160.84c1.22-18.75-8.87-28.4-27.35-25.81-24.88,3.5-45.91,15.89-63.31,33.06-13.54,13.37-26.12,27.73-38.65,42.13a164.81,164.81,0,0,0,12-29.81c9.22-31.83-4.75-56.57-36.62-65.71-16.23-4.66-32.28-4.5-48,1.94a317,317,0,0,0-74.22,43.26c6.94-13.86,11.71-28.59,12.7-44.87,2.85-46.85-31.24-73.52-67.8-77.4-3-.32-6.33,2.2-9.5,3.4,2.42,2.54,4.4,6,7.35,7.44,8.49,4.24,18.42,6.25,25.9,11.72,20,14.65,25.9,36,23.77,59.76-2.55,28.38-16,52.5-31.67,75.12q-10.73,11-20.78,22.75c-2.94,3.43-5.77,7-8.67,10.42-2.06,2.11-4.1,4.24-6.07,6.42a56.62,56.62,0,0,0-7.4,9.92c-18.65,23.12-36.69,46.76-55,70.15a415,415,0,0,0-25,34.91c-2.11,3.35-2.22,11.44,0,13.27,3.64,2.92,10.13,3.53,15.2,3,3.29-.34,6.91-3.91,9.15-6.94,9.65-13.12,18.88-26.54,28.2-39.9,17.18-24.65,33-50.41,51.79-73.76,26.37-32.78,58.29-60.17,91.74-85.69,5.3-3.72,10.53-7.54,15.9-11.15,14.88-10,30.67-17.86,49-19,31.26-2,52,20.93,47.21,51.75-2.83,18.36-13,32.47-24.42,46.35-12.62,15.38-26.05,30.51-36,47.58-12.23,21.06-21.25,44-31.49,66.18a27.35,27.35,0,0,0-2.21,9c-.63,7.35,3.84,10.5,10.6,7.56a31.22,31.22,0,0,0,6.34-4.1,33.94,33.94,0,0,0,8.66-10.06,155.65,155.65,0,0,0,13.05-16.47c17.86-26.93,34.61-54.61,53-81.13,21.61-31.11,47.48-58.48,77.15-82.86,9.62-4.38,18.9-10,29-12.78,9.49-2.63,14.57,3.67,12,13.26a61.58,61.58,0,0,1-6.3,15.58c-8.28,14-18.14,27.24-25.46,41.74-10.24,20.28-18.34,41.64-28.09,62.18-11.57,24.34-24.06,48.25-35.76,72.53-1.44,3-.46,7.18-.61,10.81,3.37-.69,7.44-.41,10-2.24,9.4-6.81,17.47-14.83,21.44-26.36,5.57-16.21,10.49-32.83,17.91-48.19,13.56-28.06,28.76-55.33,43.28-82.92C568,192.16,577.17,178,578.28,160.84Z" transform="translate(-34.19 -37.6)"/><path class="cls-1" d="M404.8,215.23c7.71-14.66,16.85-28.87,18-46,1.22-18.75-8.87-28.41-27.36-25.81-24.88,3.49-45.91,15.88-63.3,33.06-19,18.72-36.05,39.37-53.74,59.37-28.13,31.78-49,68.51-71,104.48A43.64,43.64,0,0,0,202.44,352c-1.92,7.35,2.57,11.48,9.95,9.19a18,18,0,0,0,7.89-4.67c5.95-6.7,12-13.44,16.94-20.88,17.86-26.92,34.62-54.6,53-81.13,21.61-31.11,47.47-58.47,77.15-82.85,9.62-4.38,18.9-10,29-12.79,9.5-2.62,14.57,3.68,12,13.27a62.11,62.11,0,0,1-6.3,15.58c-8.29,14-18.14,27.23-25.46,41.73-10.24,20.29-18.34,41.64-28.1,62.19C337,315.94,324.5,339.84,312.8,364.13c-1.45,3-.47,7.18-.61,10.81,3.37-.69,7.44-.41,10-2.25,9.41-6.81,17.48-14.82,21.44-26.36,5.58-16.21,10.49-32.82,17.92-48.19C375.08,270.09,390.27,242.82,404.8,215.23Z" transform="translate(-34.19 -37.6)"/><path class="cls-1" d="M340.4,240.46a14.86,14.86,0,0,0,1.09-3.61l-1.24-.92c-1.51,1.15-3.39,2-4.49,3.49-8,10.64-16.55,21-23.49,32.25s-12.48,23.81-18.46,35.86a54.66,54.66,0,0,0-4.3,11.23,6.44,6.44,0,0,0,1.84,5.52c1,.77,3.65-.3,5.43-.93a6.27,6.27,0,0,0,2.79-2.27c4.54-6.46,10.14-12.49,13.21-19.61C321.63,281,328.63,259.65,340.4,240.46Z" transform="translate(-34.19 -37.6)"/><path class="cls-1" d="M502.66,220c-.62-.47-1.24-.94-1.87-1.4-2.29,1.74-5.14,3.07-6.8,5.29-12.09,16.11-25.05,31.72-35.57,48.82-10.63,17.3-18.89,36.06-27.94,54.31a82.16,82.16,0,0,0-6.52,17c-.61,2.55.79,6.83,2.78,8.35,1.54,1.17,5.53-.45,8.23-1.4a9.45,9.45,0,0,0,4.22-3.44c6.87-9.78,15.36-18.91,20-29.69,13.39-31,24-63.31,41.81-92.37C502,223.94,502.13,221.87,502.66,220Z" transform="translate(-34.19 -37.6)"/><path class="cls-1" d="M97,440.14a28.55,28.55,0,0,1,21.94,9.46q.38,0,6-5.67c1.76-2.77,3.79-4.16,6.06-4.16s3.4,1.13,3.4,3.4l-1.51,3.41q-1.14,1.89-14.94,18.53t-15.89,19.67q-2.09,3-2.08,9.08c0,2.78,1.76,4.16,5.29,4.16q11,0,31-18.16a3.16,3.16,0,0,1,2.46-1.51q1.32,0,1.32,1.89,0,4.54-15.32,14.38t-27.42,9.83q-8.33,0-8.32-8.7c0-2-.32-3-1-3a1.84,1.84,0,0,0-1.32.38Q67.84,505.58,51,505.59T34.19,490.46q0-15.9,18.91-33.1T97,440.14ZM58,498.78q14.74,0,32.91-15.32t21.18-26.29q0-4.55-5.67-7.76a25.7,25.7,0,0,0-12.86-3.21q-17.42,0-32,14.94T47.05,487.43Q47.05,498.77,58,498.78Z" transform="translate(-34.19 -37.6)"/><path class="cls-1" d="M161.28,507.48q-28,0-28-18.16,0-16.26,19.67-33.48t41-17.21q21.36,0,21.37,14,0,8.7-8.7,15.51T191,475q-7,0-10.21-2.84c-2.15-1.89-3.22-3.65-3.22-5.3s.95-3.53,2.84-5.67,3.46-3.34,4.73-3.59q3.4,0,3.4,3a2.79,2.79,0,0,1-.76,1.7c-.5.64-.75,2.34-.75,5.11q0,3,4.35,3t9.08-4.35a13.66,13.66,0,0,0,4.72-10.41q0-12.86-14.37-12.86t-29.88,15.32q-15.53,15.33-15.51,28.94,0,15.13,21.56,15.13,30.64,0,52.2-22.32a3.16,3.16,0,0,1,2.46-1.51c.88,0,1.32.7,1.32,2.08s-2,4.1-6.05,8.13-11.1,8.2-21.18,12.49S174.15,507.48,161.28,507.48Z" transform="translate(-34.19 -37.6)"/><path class="cls-1" d="M242.61,507.48q-28,0-28-18.16,0-16.26,19.67-33.48t41-17.21q21.38,0,21.37,14,0,8.7-8.7,15.51T272.31,475q-7,0-10.22-2.84c-2.14-1.89-3.21-3.65-3.21-5.3s.94-3.53,2.83-5.67,3.47-3.34,4.73-3.59q3.4,0,3.41,3a2.85,2.85,0,0,1-.76,1.7c-.51.64-.76,2.34-.76,5.11q0,3,4.35,3t9.08-4.35a13.67,13.67,0,0,0,4.73-10.41q0-12.86-14.37-12.86t-29.89,15.32q-15.51,15.33-15.51,28.94,0,15.13,21.57,15.13,30.63,0,52.2-22.32a3.14,3.14,0,0,1,2.46-1.51c.88,0,1.32.7,1.32,2.08s-2,4.1-6,8.13-11.1,8.2-21.19,12.49S255.47,507.48,242.61,507.48Z" transform="translate(-34.19 -37.6)"/><path class="cls-1" d="M360.25,450.74q0,22.69-50.69,39.34,3,8.7,16.65,8.7,23.07,0,43.88-18.92a3.14,3.14,0,0,1,2.46-1.51q1.32,0,1.32,2.46t-6.81,8.13q-6.81,5.67-19.29,11a62.65,62.65,0,0,1-24.59,5.3q-25.73,0-25.72-18.92,0-15.5,15.7-31.39T347,439Q360.26,439,360.25,450.74Zm-51.82,32.91v2.64Q350.79,470,350.8,453.76q0-8.31-10.41-8.32T319.21,458.3Q308.42,471.17,308.43,483.65Z" transform="translate(-34.19 -37.6)"/><path class="cls-1" d="M365.55,488.56A22.56,22.56,0,0,1,374.63,470a31.3,31.3,0,0,1,19.86-7.19q10.77,0,10.78,9.46a14.68,14.68,0,0,1-2.84,8.32c-1.89,2.78-3.91,4.16-6.05,4.16s-3.22-.81-3.22-2.46a6.53,6.53,0,0,1,2.46-4.73q2.46-2.26,2.46-4.54,0-6.42-6.05-6.43c-4,0-7.89,1.84-11.54,5.49A17.6,17.6,0,0,0,375,485a19.49,19.49,0,0,0,3.79,12.29c2.51,3.28,6.49,4.92,11.91,4.92s10.09-2.33,14-7a47.43,47.43,0,0,0,8.89-17q3-10,6.62-20.24a43,43,0,0,1,11-17.21q7.36-7,16.07-7t13.62,2.84q4.92,2.83,4.92,7.38a13.21,13.21,0,0,1-3.59,8.7c-2.4,2.78-5,4.16-7.76,4.16s-4.29-.63-4.54-1.89c0-2,1.39-3.78,4.16-5.3,1.52-.5,2.27-2.27,2.27-5.29,0-4-2.78-6.06-8.32-6.06s-10.21,3.6-14,10.78a94.48,94.48,0,0,0-8.51,23.46,52.83,52.83,0,0,1-12.29,23.45q-9.46,10.79-25.34,10.78-9.86,0-15.51-4.54t-6.06-9.08Z" transform="translate(-34.19 -37.6)"/><path class="cls-1" d="M456.71,488.56q0-15.12,16.07-32.15T505.5,439q3.4-7.18,11.54-7.19t12.86,4.73a16.42,16.42,0,0,1,4.73,12.11,38.84,38.84,0,0,1-1.51,11.91q11,0,24.59-5.29T574,447.33l1.89,1.89q0,.76-3,3.41t-16.27,7.56a79.2,79.2,0,0,1-25,5.3q-6.06,15.88-21.19,27.8T479,505.21Q456.7,505.21,456.71,488.56Zm67.71-23.07q-18.54-1.89-19.67-20.43-12.87.39-24,14.19t-11.16,26.29q0,14,14.75,14,9.84,0,22.7-10T524.42,465.49Zm-11-24.21q0,15.51,12.48,18.54a49.69,49.69,0,0,0,.38-7.76,15.71,15.71,0,0,0-3-9.83q-3-4-6.43-4T513.45,441.28Z" transform="translate(-34.19 -37.6)"/><path class="cls-1" d="M603.1,469.65c2.27,0,5.16-1,8.7-3,1.26,0,1.89.45,1.89,1.33a2.52,2.52,0,0,1-1,2.08q-.94.77-7,2.65a34.8,34.8,0,0,1-9.84,1.89q-12.48,0-12.48-7.95a14.51,14.51,0,0,1,1.7-6.43q1.7-3.4,1.7-4.54c0-.75-.25-1.13-.75-1.13q-7.58,2.66-21.94,13.24l-26.86,33.66c-2,2.52-4,3.79-5.86,3.79s-2.84-.63-2.84-1.89.88-3.28,2.65-6.06l23.83-29.88q2.64-3.4,9.83-12.86t8.51-11.35q1.32-1.89,5.3-1.89c2.65,0,4,.51,4,1.51a3.09,3.09,0,0,1-.75,2.27l-5.3,7.57a27.68,27.68,0,0,1-2.65,3q3.4-.75,27.24-13.61a6.47,6.47,0,0,1,2.64-.38c1.26,0,1.9.32,1.9.94a3.64,3.64,0,0,1-.57,1.9q-.57.94-4,5.1-6.81,8.32-6.81,12.48C594.4,467.13,597.29,469.65,603.1,469.65Z" transform="translate(-34.19 -37.6)"/><path class="cls-1" d="M609.9,498q11,0,31-18.16a3.17,3.17,0,0,1,2.46-1.51c.88,0,1.33.63,1.33,1.89q0,4.54-15.32,14.38T602,504.45q-8.33,0-8.32-8.7c0-3.27,1.64-7.19,4.92-11.73,1.26-1.51,2.89-3.46,4.91-5.86s3.85-4.6,5.49-6.62,5-6,10-11.91,9-10.65,11.92-14.19a70.54,70.54,0,0,1,5.86-6.62,5.3,5.3,0,0,1,3.6-1.32,5.09,5.09,0,0,1,3.4,1.13,3.43,3.43,0,0,1,1.32,2.65c0,1-.75,2.27-2.27,3.78l-28.37,32.16q-9.84,10.59-9.83,16.64C604.61,496.64,606.37,498,609.9,498ZM658,412.91q0,4.92,5.29,4.92,2.64,0,6.62-3c2.65-2,4-4.16,4-6.43a7,7,0,0,0-1.7-5.11,6.15,6.15,0,0,0-4.54-1.7q-2.83,0-6.24,4T658,412.91Z" transform="translate(-34.19 -37.6)"/><path class="cls-1" d="M638.65,488.56q0-15.12,16.08-32.15T687.45,439q3.4-7.18,11.54-7.19t12.86,4.73a16.42,16.42,0,0,1,4.73,12.11,38.49,38.49,0,0,1-1.52,11.91q11,0,24.59-5.29t16.27-7.95l1.89,1.89q0,.76-3,3.41t-16.26,7.56a79.26,79.26,0,0,1-25,5.3q-6.06,15.88-21.18,27.8T661,505.21Q638.65,505.21,638.65,488.56Zm67.71-23.07q-18.54-1.89-19.67-20.43-12.86.39-24,14.19t-11.16,26.29q0,14,14.76,14,9.83,0,22.69-10T706.36,465.49Zm-11-24.21q0,15.51,12.49,18.54a51.5,51.5,0,0,0,.37-7.76,15.76,15.76,0,0,0-3-9.83q-3-4-6.43-4T695.39,441.28Z" transform="translate(-34.19 -37.6)"/><path class="cls-1" d="M723.76,488.56A22.58,22.58,0,0,1,732.84,470a31.3,31.3,0,0,1,19.86-7.19q10.78,0,10.78,9.46a14.68,14.68,0,0,1-2.84,8.32c-1.89,2.78-3.91,4.16-6,4.16s-3.21-.81-3.21-2.46a6.51,6.51,0,0,1,2.45-4.73q2.46-2.26,2.46-4.54,0-6.42-6-6.43c-4,0-7.88,1.84-11.54,5.49A17.59,17.59,0,0,0,733.22,485,19.54,19.54,0,0,0,737,497.26q3.78,4.92,11.92,4.92t14-7a47.43,47.43,0,0,0,8.89-17q3-10,6.62-20.24a43.06,43.06,0,0,1,11-17.21q7.38-7,16.08-7t13.62,2.84q4.9,2.83,4.91,7.38a13.21,13.21,0,0,1-3.59,8.7c-2.4,2.78-5,4.16-7.75,4.16s-4.3-.63-4.54-1.89c0-2,1.38-3.78,4.16-5.3,1.51-.5,2.27-2.27,2.27-5.29,0-4-2.78-6.06-8.33-6.06s-10.21,3.6-14,10.78a94.48,94.48,0,0,0-8.51,23.46,52.86,52.86,0,0,1-12.3,23.45q-9.45,10.79-25.34,10.78-9.84,0-15.51-4.54t-6.05-9.08Z" transform="translate(-34.19 -37.6)"/></svg>